HIERARCHY
ROOT Hips
{
	OFFSET 0.000000 71.427986 0.000000
	CHANNELS 6 Xposition Yposition Zposition Xrotation Yrotation Zrotation
	JOINT Pelvis
	{
		OFFSET 0.000000 0.000000 0.000000
		CHANNELS 3 Xrotation Yrotation Zrotation
		JOINT LeftUpLeg
		{
			OFFSET 6.797100 -2.508499 -1.318700
			CHANNELS 3 Xrotation Yrotation Zrotation
			JOINT LeftLeg
			{
				OFFSET 0.069008 -29.241863 0.690200
				CHANNELS 3 Xrotation Yrotation Zrotation
				JOINT LeftFoot
				{
					OFFSET -0.069008 -29.568123 -0.266800
					CHANNELS 3 Xrotation Yrotation Zrotation
					JOINT LeftToeBase
					{
						OFFSET 3.145500 -8.631000 16.059900
						CHANNELS 3 Xrotation Yrotation Zrotation
						End Site
						{
							OFFSET 0.000000 18.501587 0.000000
						}
					}
				}
			}
			JOINT Left_ShortSleeve
			{
				OFFSET 0.265923 -10.480953 1.153800
				CHANNELS 3 Xrotation Yrotation Zrotation
				End Site
				{
					OFFSET 1.725763 19.823879 0.000000
				}
			}
		}
		JOINT RightUpLeg
		{
			OFFSET -6.797100 -2.508499 -1.318700
			CHANNELS 3 Xrotation Yrotation Zrotation
			JOINT RightLeg
			{
				OFFSET -0.082453 -29.241932 0.688000
				CHANNELS 3 Xrotation Yrotation Zrotation
				JOINT RightFoot
				{
					OFFSET 0.082453 -29.568058 -0.264600
					CHANNELS 3 Xrotation Yrotation Zrotation
					JOINT RightToeBase
					{
						OFFSET -3.115300 -8.682800 16.113400
						CHANNELS 3 Xrotation Yrotation Zrotation
						End Site
						{
							OFFSET 0.000000 18.567114 0.000000
						}
					}
				}
			}
			JOINT Right_ShortSleeve
			{
				OFFSET -0.265923 -10.480953 1.153800
				CHANNELS 3 Xrotation Yrotation Zrotation
				End Site
				{
					OFFSET -1.725766 19.823910 0.000000
				}
			}
		}
	}
	JOINT Spine
	{
		OFFSET 0.000000 13.368103 0.470500
		CHANNELS 3 Xrotation Yrotation Zrotation
		JOINT Spine1
		{
			OFFSET 0.147000 13.837402 0.538800
			CHANNELS 3 Xrotation Yrotation Zrotation
			JOINT Spine2
			{
				OFFSET 0.168000 16.242897 -1.435500
				CHANNELS 3 Xrotation Yrotation Zrotation
				JOINT Neck
				{
					OFFSET 0.217200 18.631500 -1.679100
					CHANNELS 3 Xrotation Yrotation Zrotation
					JOINT Head
					{
						OFFSET 0.000000 6.599396 1.385900
						CHANNELS 3 Xrotation Yrotation Zrotation
						JOINT Hat
						{
							OFFSET -0.532200 27.220596 -10.096100
							CHANNELS 3 Xrotation Yrotation Zrotation
							End Site
							{
								OFFSET 0.000000 22.029861 0.000000
							}
						}
						JOINT HairD
						{
							OFFSET -10.777400 17.437393 -1.325900
							CHANNELS 3 Xrotation Yrotation Zrotation
							JOINT HairD1
							{
								OFFSET -3.290299 -11.051193 1.062200
								CHANNELS 3 Xrotation Yrotation Zrotation
								End Site
								{
									OFFSET 0.000000 11.579437 0.000000
								}
							}
						}
						JOINT HairB
						{
							OFFSET -10.777400 17.437393 1.467900
							CHANNELS 3 Xrotation Yrotation Zrotation
							JOINT HairB1
							{
								OFFSET -1.561200 -12.956299 3.590200
								CHANNELS 3 Xrotation Yrotation Zrotation
								End Site
								{
									OFFSET 0.000000 13.534866 0.000000
								}
							}
						}
						JOINT HairA
						{
							OFFSET 9.713100 17.437393 1.467900
							CHANNELS 3 Xrotation Yrotation Zrotation
							JOINT HairA1
							{
								OFFSET 1.561200 -12.956299 3.590200
								CHANNELS 3 Xrotation Yrotation Zrotation
								End Site
								{
									OFFSET 0.000000 13.534866 0.000000
								}
							}
						}
						JOINT HairC
						{
							OFFSET 9.713100 17.437393 -1.325900
							CHANNELS 3 Xrotation Yrotation Zrotation
							JOINT HairC1
							{
								OFFSET 3.290300 -11.051193 1.062200
								CHANNELS 3 Xrotation Yrotation Zrotation
								End Site
								{
									OFFSET 0.000000 11.579437 0.000000
								}
							}
						}
					}
				}
				JOINT LeftShoulder
				{
					OFFSET 5.101800 15.108002 -2.763700
					CHANNELS 3 Xrotation Yrotation Zrotation
					JOINT LeftArm
					{
						OFFSET 9.825497 2.506317 -1.597400
						CHANNELS 3 Xrotation Yrotation Zrotation
						JOINT LeftForeArm
						{
							OFFSET 21.966244 0.000000 0.000000
							CHANNELS 3 Xrotation Yrotation Zrotation
							JOINT LeftHand
							{
								OFFSET 33.879036 0.000000 0.000000
								CHANNELS 3 Xrotation Yrotation Zrotation
								JOINT LeftHandThumb1
								{
									OFFSET 6.715286 -2.359680 3.363841
									CHANNELS 3 Xrotation Yrotation Zrotation
									JOINT LeftHandThumb2
									{
										OFFSET 2.507072 -1.447464 1.447461
										CHANNELS 3 Xrotation Yrotation Zrotation
										JOINT LeftHandThumb3
										{
											OFFSET 2.898338 -1.673355 1.673357
											CHANNELS 3 Xrotation Yrotation Zrotation
											End Site
											{
												OFFSET -0.295959 3.727692 -0.131651
											}
										}
									}
								}
								JOINT LeftHandIndex1
								{
									OFFSET 14.190811 -0.254547 3.840278
									CHANNELS 3 Xrotation Yrotation Zrotation
									JOINT LeftHandIndex2
									{
										OFFSET 3.551727 0.000000 -0.000000
										CHANNELS 3 Xrotation Yrotation Zrotation
										JOINT LeftHandIndex3
										{
											OFFSET 2.894196 0.000000 0.000000
											CHANNELS 3 Xrotation Yrotation Zrotation
											End Site
											{
												OFFSET -1.000603 2.690872 0.366626
											}
										}
									}
								}
								JOINT LeftHandMiddle1
								{
									OFFSET 13.776489 0.000000 0.000000
									CHANNELS 3 Xrotation Yrotation Zrotation
									JOINT LeftHandMiddle2
									{
										OFFSET 3.438232 0.000000 0.000000
										CHANNELS 3 Xrotation Yrotation Zrotation
										JOINT LeftHandMiddle3
										{
											OFFSET 3.691551 0.000000 0.000000
											CHANNELS 3 Xrotation Yrotation Zrotation
											End Site
											{
												OFFSET -1.082298 3.499527 0.457670
											}
										}
									}
								}
								JOINT LeftHandRing1
								{
									OFFSET 13.966164 -0.268127 -3.067488
									CHANNELS 3 Xrotation Yrotation Zrotation
									JOINT LeftHandRing2
									{
										OFFSET 3.162567 0.000000 0.000000
										CHANNELS 3 Xrotation Yrotation Zrotation
										JOINT LeftHandRing3
										{
											OFFSET 3.324348 0.000000 0.000000
											CHANNELS 3 Xrotation Yrotation Zrotation
											End Site
											{
												OFFSET -0.861900 3.184998 0.405154
											}
										}
									}
								}
								JOINT LeftHandPinky1
								{
									OFFSET 13.131393 -0.168503 -5.746925
									CHANNELS 3 Xrotation Yrotation Zrotation
									JOINT LeftHandPinky2
									{
										OFFSET 2.849182 0.000000 0.000000
										CHANNELS 3 Xrotation Yrotation Zrotation
										JOINT LeftHandPinky3
										{
											OFFSET 2.805038 0.000000 0.000000
											CHANNELS 3 Xrotation Yrotation Zrotation
											End Site
											{
												OFFSET -0.882500 2.642609 0.325652
											}
										}
									}
								}
							}
							JOINT Left_Sleeve
							{
								OFFSET 6.592125 -0.646545 0.805568
								CHANNELS 3 Xrotation Yrotation Zrotation
								End Site
								{
									OFFSET -0.000179 20.275787 -0.000000
								}
							}
						}
					}
				}
				JOINT RightShoulder
				{
					OFFSET -5.731700 15.108002 -2.763700
					CHANNELS 3 Xrotation Yrotation Zrotation
					JOINT RightArm
					{
						OFFSET -9.825497 2.506317 -1.597400
						CHANNELS 3 Xrotation Yrotation Zrotation
						JOINT RightForeArm
						{
							OFFSET -21.966242 0.000000 0.000000
							CHANNELS 3 Xrotation Yrotation Zrotation
							JOINT RightHand
							{
								OFFSET -33.879032 0.000000 0.000000
								CHANNELS 3 Xrotation Yrotation Zrotation
								JOINT RightHandThumb1
								{
									OFFSET -6.715286 -2.359680 3.363841
									CHANNELS 3 Xrotation Yrotation Zrotation
									JOINT RightHandThumb2
									{
										OFFSET -2.507072 -1.447464 1.447461
										CHANNELS 3 Xrotation Yrotation Zrotation
										JOINT RightHandThumb3
										{
											OFFSET -2.898338 -1.673355 1.673357
											CHANNELS 3 Xrotation Yrotation Zrotation
											End Site
											{
												OFFSET 0.295959 3.727692 -0.131651
											}
										}
									}
								}
								JOINT RightHandIndex1
								{
									OFFSET -14.190811 -0.254547 3.840278
									CHANNELS 3 Xrotation Yrotation Zrotation
									JOINT RightHandIndex2
									{
										OFFSET -3.551727 0.000000 -0.000000
										CHANNELS 3 Xrotation Yrotation Zrotation
										JOINT RightHandIndex3
										{
											OFFSET -2.894196 0.000000 0.000000
											CHANNELS 3 Xrotation Yrotation Zrotation
											End Site
											{
												OFFSET 1.000603 2.690872 0.366626
											}
										}
									}
								}
								JOINT RightHandMiddle1
								{
									OFFSET -13.776489 0.000000 0.000000
									CHANNELS 3 Xrotation Yrotation Zrotation
									JOINT RightHandMiddle2
									{
										OFFSET -3.438232 0.000000 0.000000
										CHANNELS 3 Xrotation Yrotation Zrotation
										JOINT RightHandMiddle3
										{
											OFFSET -3.691551 0.000000 0.000000
											CHANNELS 3 Xrotation Yrotation Zrotation
											End Site
											{
												OFFSET 1.082298 3.499527 0.457670
											}
										}
									}
								}
								JOINT RightHandRing1
								{
									OFFSET -13.966164 -0.268127 -3.067488
									CHANNELS 3 Xrotation Yrotation Zrotation
									JOINT RightHandRing2
									{
										OFFSET -3.162567 0.000000 0.000000
										CHANNELS 3 Xrotation Yrotation Zrotation
										JOINT RightHandRing3
										{
											OFFSET -3.324348 0.000000 0.000000
											CHANNELS 3 Xrotation Yrotation Zrotation
											End Site
											{
												OFFSET 0.861900 3.184998 0.405154
											}
										}
									}
								}
								JOINT RightHandPinky1
								{
									OFFSET -13.131393 -0.168503 -5.746925
									CHANNELS 3 Xrotation Yrotation Zrotation
									JOINT RightHandPinky2
									{
										OFFSET -2.849182 0.000000 0.000000
										CHANNELS 3 Xrotation Yrotation Zrotation
										JOINT RightHandPinky3
										{
											OFFSET -2.805038 0.000000 0.000000
											CHANNELS 3 Xrotation Yrotation Zrotation
											End Site
											{
												OFFSET 0.882500 2.642609 0.325652
											}
										}
									}
								}
							}
							JOINT Right_Sleeve
							{
								OFFSET -6.592125 -0.646545 0.805568
								CHANNELS 3 Xrotation Yrotation Zrotation
								End Site
								{
									OFFSET 0.000179 20.275787 -0.000000
								}
							}
						}
					}
				}
				JOINT Bind_Right_JacketString
				{
					OFFSET -3.534800 11.969597 7.200700
					CHANNELS 3 Xrotation Yrotation Zrotation
					JOINT Bind_Right_JacketString1
					{
						OFFSET -0.319900 -6.102600 2.794100
						CHANNELS 3 Xrotation Yrotation Zrotation
						End Site
						{
							OFFSET 0.000000 6.719452 0.000000
						}
					}
				}
				JOINT Bind_Left_JacketString
				{
					OFFSET 2.904800 11.969597 7.200700
					CHANNELS 3 Xrotation Yrotation Zrotation
					JOINT Bind_Left_JacketString1
					{
						OFFSET 0.364800 -5.904503 3.186800
						CHANNELS 3 Xrotation Yrotation Zrotation
						End Site
						{
							OFFSET 0.000000 6.719513 0.000000
						}
					}
				}
				JOINT HairE
				{
					OFFSET 5.915200 17.612701 -11.592200
					CHANNELS 3 Xrotation Yrotation Zrotation
					JOINT HairE1
					{
						OFFSET 0.289200 -7.171898 -1.284500
						CHANNELS 3 Xrotation Yrotation Zrotation
						End Site
						{
							OFFSET 0.000000 7.291756 0.000000
						}
					}
				}
				JOINT HairF
				{
					OFFSET -0.864800 17.612701 -11.592200
					CHANNELS 3 Xrotation Yrotation Zrotation
					JOINT HairF1
					{
						OFFSET 0.000000 -14.087097 -2.127501
						CHANNELS 3 Xrotation Yrotation Zrotation
						End Site
						{
							OFFSET 0.000000 14.246841 0.000000
						}
					}
				}
				JOINT HairG
				{
					OFFSET -8.087700 17.612701 -11.592200
					CHANNELS 3 Xrotation Yrotation Zrotation
					JOINT HairG1
					{
						OFFSET -0.293600 -6.081398 -0.910100
						CHANNELS 3 Xrotation Yrotation Zrotation
						End Site
						{
							OFFSET 0.000000 6.156120 0.000000
						}
					}
				}
			}
		}
	}
	JOINT Pouch
	{
		OFFSET 0.000000 4.394501 10.847300
		CHANNELS 3 Xrotation Yrotation Zrotation
		End Site
		{
			OFFSET 0.000000 21.880577 0.000000
		}
	}
	JOINT Bag
	{
		OFFSET -13.229000 4.813004 -0.593300
		CHANNELS 3 Xrotation Yrotation Zrotation
		End Site
		{
			OFFSET 0.000000 21.880577 0.000000
		}
	}
	JOINT OccupyGuyFacialAnim_Joint
	{
		OFFSET 1.000000 -70.206398 -1.655000
		CHANNELS 3 Xrotation Yrotation Zrotation
		End Site
		{
			OFFSET 0.000000 21.880577 0.000000
		}
	}
}
MOTION
Frames: 4
Frame Time: 0.016667
-2.244154 68.266228 -0.779062 -6.265904 -26.204816 1.514440 -0.000000 0.000001 0.000001 -15.085484 10.183661 9.469916 31.840238 9.866561 1.718282 -2.403404 19.260843 -10.176634 0.000000 -0.000001 -0.000000 0.000004 0.000001 -0.000000 -10.923670 -33.493120 -13.237184 37.132996 7.140860 -6.533741 -24.577860 -19.878980 3.309205 -0.000000 -0.000000 -0.000000 0.000001 -0.000000 -0.000000 5.568304 -2.821349 -2.288275 1.469060 -2.839390 -0.460261 1.463317 -2.694935 0.220314 2.455877 4.751713 1.127231 -0.495922 -18.984321 -3.620253 -0.000000 -0.000001 0.000000 -0.000000 -0.000001 0.000000 -0.000000 -0.000001 0.000000 -0.000000 -0.000001 -0.000000 -0.000000 -0.000001 0.000000 -0.000000 -0.000001 -0.000000 -0.000000 -0.000001 0.000000 -0.000000 -0.000001 0.000000 -0.000000 -0.000001 0.000000 -0.595443 -16.331997 -20.041826 12.420923 10.550274 -35.769728 0.000095 -96.391871 0.000090 -130.486365 -9.490894 13.340958 -12.800106 -17.470132 4.121655 1.000140 0.731291 -1.438310 0.000002 0.000001 0.000000 -3.532541 4.254407 -63.954572 3.402093 5.315481 -65.218908 -0.000002 0.000000 0.000002 2.434391 7.296070 -69.364082 3.297869 5.266354 -64.088655 0.000006 0.000001 -0.000001 4.717023 8.075493 -77.582281 2.056295 4.456886 -49.517642 -0.000003 0.000000 0.000000 6.410337 8.363768 -80.414576 1.722721 4.149883 -45.074413 0.000003 -0.000002 0.000001 0.000004 -0.000002 -0.000001 0.930389 18.037664 10.376102 6.836829 30.018924 41.382846 -0.001826 94.273597 0.001789 -34.121050 -22.154928 26.634003 20.470557 7.475553 18.843590 4.151710 -12.160918 -33.847989 0.000001 0.000001 -0.000001 -0.887081 1.427987 12.684528 1.917393 -3.767447 53.934326 -0.000000 -0.000001 0.000000 0.770895 -5.199604 54.618820 5.563888 -4.568239 101.238601 0.000001 -0.000001 -0.000001 6.934469 -8.544248 63.908762 2.909288 -4.317414 67.934708 0.000000 0.000001 -0.000002 8.373400 -8.171773 73.989923 2.173686 -3.940969 57.745390 -0.000000 0.000001 0.000001 0.000000 -0.000001 -0.000003 0.000000 0.000002 -0.000000 0.000000 -0.000000 0.000000 0.000000 0.000002 -0.000000 0.000000 0.000002 -0.000000 0.000000 0.000002 -0.000000 0.000000 -0.000000 -0.000000 0.000000 0.000002 -0.000000 0.000000 0.000002 -0.000000 0.000000 0.000002 -0.000000 0.000000 -0.000000 -0.000000 -0.000000 0.000001 0.000001 -0.000000 0.000001 0.000001 -0.000000 0.000001 0.000001 
-2.509318 68.333206 -0.702507 -6.320111 -26.903022 1.405575 0.000001 -0.000002 0.000000 -15.158505 10.111824 9.722191 32.526723 9.684708 1.731805 -2.295272 20.038875 -9.979183 -0.000000 0.000000 -0.000000 -0.000002 -0.000000 -0.000000 -10.312467 -33.253189 -12.779751 36.628085 7.154523 -6.506146 -24.533452 -19.537391 3.233817 0.000000 0.000000 0.000000 -0.000000 -0.000000 -0.000000 5.597147 -2.705146 -2.262511 1.469656 -2.769740 -0.466833 1.463645 -2.627368 0.198466 2.455875 4.751711 1.127229 -0.517744 -18.807906 -3.545888 -0.000000 -0.000002 -0.000000 -0.000000 -0.000002 -0.000000 -0.000000 -0.000002 0.000000 -0.000000 -0.000002 0.000000 -0.000000 -0.000002 -0.000000 -0.000000 -0.000002 0.000000 -0.000000 -0.000002 -0.000000 -0.000000 -0.000002 -0.000000 -0.000000 -0.000002 -0.000000 -0.595443 -16.331997 -20.041822 11.979355 10.162486 -35.915419 -0.000065 -96.251142 -0.000053 -130.145143 -9.203692 13.619352 -12.800106 -17.470133 4.121656 1.000138 0.731290 -1.438308 -0.000002 -0.000000 -0.000001 -3.532538 4.254403 -63.954579 3.402093 5.315480 -65.218901 -0.000001 0.000000 -0.000002 2.434391 7.296069 -69.364082 3.297869 5.266356 -64.088649 0.000004 0.000001 -0.000001 4.717024 8.075487 -77.582275 2.056295 4.456884 -49.517639 -0.000000 0.000000 0.000002 6.410340 8.363768 -80.414570 1.722721 4.149883 -45.074413 0.000001 0.000002 -0.000000 0.000003 -0.000000 -0.000001 0.928820 18.095128 10.321580 7.039712 29.557391 41.115014 0.000200 94.754511 -0.000210 -34.318723 -22.151494 26.224445 20.470558 7.475549 18.843594 4.151712 -12.160918 -33.847993 0.000002 -0.000001 0.000001 -0.887080 1.427985 12.684531 1.917390 -3.767451 53.934333 -0.000001 0.000001 0.000000 0.770893 -5.199604 54.618817 5.563892 -4.568239 101.238601 0.000001 0.000002 0.000001 6.934468 -8.544251 63.908762 2.909285 -4.317416 67.934714 -0.000001 0.000000 -0.000000 8.373403 -8.171770 73.989923 2.173682 -3.940967 57.745397 0.000001 0.000001 -0.000001 0.000000 0.000001 0.000002 -0.000000 -0.000000 0.000000 0.000000 -0.000004 0.000000 -0.000000 -0.000000 -0.000000 -0.000000 -0.000000 -0.000000 -0.000000 -0.000000 0.000000 0.000000 -0.000004 0.000000 -0.000000 -0.000000 -0.000000 -0.000000 -0.000000 -0.000000 -0.000000 -0.000000 0.000000 0.000000 -0.000004 0.000000 0.000001 -0.000002 0.000000 0.000001 -0.000002 0.000000 0.000001 -0.000002 0.000000 
-2.763059 68.401993 -0.627539 -6.375902 -27.601201 1.297610 -0.000000 0.000000 -0.000000 -15.131424 10.058002 9.949799 33.039630 9.600381 1.743728 -2.146227 20.720832 -9.856134 -0.000000 0.000000 -0.000000 -0.000001 -0.000001 0.000001 -9.699817 -32.973008 -12.327857 36.101525 7.110653 -6.472854 -24.460287 -19.174866 3.189568 -0.000000 -0.000000 0.000000 0.000001 -0.000001 0.000000 5.623733 -2.577698 -2.239505 1.470253 -2.697856 -0.473616 1.463942 -2.557627 0.176189 2.455877 4.751703 1.127231 -0.552616 -18.607527 -3.469240 0.000000 0.000004 -0.000000 0.000000 0.000004 -0.000000 0.000000 0.000004 -0.000000 0.000000 0.000004 -0.000000 0.000000 -0.000001 -0.000000 0.000000 0.000004 -0.000000 0.000000 -0.000001 -0.000000 0.000000 0.000004 -0.000000 0.000000 0.000004 -0.000000 -0.595443 -16.332005 -20.041821 11.555113 9.778321 -36.062292 0.000220 -96.110317 0.000238 -129.807417 -8.910060 13.881083 -12.800104 -17.470128 4.121654 1.000139 0.731291 -1.438305 -0.000001 -0.000003 -0.000002 -3.532538 4.254409 -63.954572 3.402095 5.315479 -65.218908 0.000001 0.000001 0.000000 2.434393 7.296075 -69.364075 3.297864 5.266365 -64.088655 0.000005 0.000001 0.000001 4.717024 8.075490 -77.582288 2.056296 4.456888 -49.517635 0.000004 0.000001 -0.000001 6.410340 8.363772 -80.414576 1.722726 4.149879 -45.074409 -0.000001 -0.000002 0.000001 0.000003 0.000002 -0.000001 0.926477 18.152628 10.275614 7.261009 29.087535 40.849162 0.000159 95.247514 -0.000215 -34.508356 -22.138984 25.801851 20.470560 7.475552 18.843590 4.151710 -12.160920 -33.847996 0.000002 -0.000001 0.000002 -0.887083 1.427982 12.684529 1.917389 -3.767449 53.934326 0.000001 0.000001 -0.000001 0.770892 -5.199606 54.618820 5.563887 -4.568239 101.238601 -0.000001 0.000001 -0.000001 6.934467 -8.544251 63.908769 2.909289 -4.317414 67.934708 -0.000000 0.000001 -0.000001 8.373401 -8.171771 73.989923 2.173683 -3.940968 57.745397 -0.000001 0.000001 -0.000001 0.000000 -0.000000 0.000000 0.000000 -0.000003 0.000000 0.000000 -0.000003 0.000000 0.000000 -0.000003 0.000000 0.000000 -0.000003 0.000000 0.000000 -0.000003 0.000000 0.000000 -0.000003 0.000000 0.000000 -0.000003 0.000000 0.000000 -0.000003 0.000000 0.000000 -0.000003 0.000000 0.000000 -0.000003 0.000000 -0.000000 0.000000 -0.000000 -0.000000 0.000000 -0.000000 -0.000000 0.000000 -0.000000 
-3.004656 68.471352 -0.555717 -6.433348 -28.299316 1.189463 -0.000000 -0.000001 -0.000000 -15.126818 10.028979 10.091558 33.438120 9.605233 1.750786 -2.006748 21.082636 -9.736748 -0.000000 -0.000002 -0.000000 -0.000001 -0.000001 -0.000000 -9.094974 -32.656907 -11.886051 35.564163 7.016430 -6.434836 -24.364014 -18.793114 3.171336 -0.000000 0.000002 0.000000 -0.000000 -0.000000 0.000000 5.648722 -2.441541 -2.217623 1.470858 -2.625028 -0.480489 1.464209 -2.487011 0.153857 2.455877 4.751699 1.127230 -0.597446 -18.386465 -3.389411 0.000000 0.000001 -0.000000 0.000000 0.000001 -0.000000 0.000000 0.000001 -0.000000 0.000000 0.000001 -0.000000 0.000000 0.000003 0.000000 0.000000 0.000001 -0.000000 0.000000 0.000003 0.000000 0.000000 0.000001 -0.000000 0.000000 0.000001 -0.000000 -0.595442 -16.331995 -20.041822 11.157887 9.410633 -36.208957 -0.000020 -95.973864 -0.000049 -129.478475 -8.615285 14.116779 -12.800107 -17.470133 4.121654 1.000135 0.731286 -1.438309 0.000001 -0.000000 -0.000003 -3.532540 4.254412 -63.954572 3.402089 5.315482 -65.218908 0.000001 0.000001 -0.000000 2.434390 7.296073 -69.364082 3.297866 5.266364 -64.088655 0.000002 0.000001 -0.000001 4.717023 8.075493 -77.582281 2.056291 4.456887 -49.517639 0.000002 0.000001 -0.000001 6.410338 8.363768 -80.414570 1.722725 4.149878 -45.074409 0.000002 0.000000 -0.000001 0.000004 0.000001 0.000000 0.923534 18.206694 10.240309 7.499871 28.626713 40.584656 -0.000633 95.740660 0.000644 -34.687286 -22.112922 25.372698 20.470557 7.475553 18.843594 4.151711 -12.160918 -33.847993 0.000002 0.000000 0.000001 -0.887081 1.427986 12.684531 1.917391 -3.767450 53.934319 -0.000000 0.000001 -0.000001 0.770892 -5.199606 54.618823 5.563886 -4.568238 101.238601 0.000001 -0.000001 -0.000001 6.934468 -8.544248 63.908762 2.909287 -4.317413 67.934708 0.000001 0.000000 -0.000001 8.373404 -8.171769 73.989923 2.173686 -3.940967 57.745390 -0.000001 0.000000 0.000001 0.000001 -0.000001 -0.000001 0.000000 0.000004 -0.000000 0.000000 0.000000 0.000000 0.000000 0.000004 -0.000000 0.000000 0.000004 -0.000000 0.000000 0.000004 -0.000000 0.000000 0.000000 -0.000000 0.000000 0.000004 -0.000000 0.000000 0.000004 -0.000000 0.000000 0.000004 -0.000000 0.000000 0.000000 -0.000000 -0.000000 -0.000001 -0.000000 -0.000000 -0.000001 -0.000000 -0.000000 -0.000001 -0.000000 
